<?xml version="1.0" encoding="utf-8"?>
<!-- Generator: Adobe Illustrator 24.3.0, SVG Export Plug-In . SVG Version: 6.00 Build 0)  -->
<svg version="1.1" id="Camada_1" xmlns="http://www.w3.org/2000/svg" xmlns:xlink="http://www.w3.org/1999/xlink" x="0px" y="0px"
	 viewBox="0 0 1040 209.2" style="enable-background:new 0 0 1040 209.2;" xml:space="preserve">
<style type="text/css">
	.st0{fill:#F7F5FA;}
	.st1{fill:url(#SVGID_1_);}
</style>
<path class="st0" d="M819.2,2.1V121c0,48.6,39.4,88,88,88H952c48.6,0,88-39.4,88-88V2.1c0-1.2-0.9-2.1-2.1-2.1h-41.3
	c-1.2,0-2.1,0.9-2.1,2.1v170.7c0,0.8-0.6,1.4-1.4,1.4h-127c-0.8,0-1.4-0.6-1.4-1.4V2.1c0-1.2-0.9-2.1-2.1-2.1h-41.3
	C820.2,0,819.2,0.9,819.2,2.1z"/>
<path class="st0" d="M818.1,206L727,19.3c-5.7-11.6-17.5-19-30.4-19h-12.1h-12.3h-12.1c-12.9,0-24.7,7.4-30.4,19L538.8,206
	c-0.7,1.4,0.3,3,1.9,3h40.7c0.8,0,1.5-0.5,1.9-1.2l24.9-51h140.7l24.9,51c0.4,0.7,1.1,1.2,1.9,1.2h40.7
	C817.8,209.1,818.8,207.4,818.1,206z M626.1,120.1l51.1-104.6c0.5-1.1,2-1.1,2.5,0l51.1,104.6c0.5,0.9-0.2,2-1.3,2H627.4
	C626.3,122.1,625.6,121,626.1,120.1z"/>
<path class="st0" d="M353.4,2.3l-0.1,30.6c0,1.2,0.9,2.1,2.1,2.1h121c1.3,0,1.9,1.5,1,2.4L452,63.1c-4.1,4.2-6.5,9.8-6.5,15.7
	l-0.4,128c0,1.2,0.9,2.1,2.1,2.1h41.7c1.2,0,2.1-0.9,2.1-2.1V35.1h89.6c1.2,0,2.1-0.9,2.1-2.1V2.3c0-1.2-0.9-2.1-2.1-2.1H355.5
	C354.3,0.2,353.4,1.2,353.4,2.3z"/>
<g>
	
		<linearGradient id="SVGID_1_" gradientUnits="userSpaceOnUse" x1="273.8936" y1="296.3718" x2="-10.349" y2="30.1764" gradientTransform="matrix(1 0 0 -1 0 209.8898)">
		<stop  offset="0.1228" style="stop-color:#5888FF"/>
		<stop  offset="0.3348" style="stop-color:#7C8DFC"/>
		<stop  offset="0.8031" style="stop-color:#D69AF4"/>
		<stop  offset="1" style="stop-color:#FEA0F0"/>
	</linearGradient>
	<path class="st1" d="M277.5,0.2h-68.1c-0.3,0-0.5,0.1-0.7,0.3l-66.9,66.9c-0.9,0.9-2.4,0.3-2.4-1V1.3c0-0.6-0.5-1.1-1.1-1.1H1.1
		C0.5,0.2,0,0.7,0,1.3v67.5c0,0.6,0.5,1.1,1.1,1.1H136c1.3,0,1.9,1.5,1,2.4l-51.8,51.8c-10.2,10.2-15.4,22.7-15.4,35.8v48.2
		c0,0.6,0.5,1.1,1.1,1.1h67.5c0.6,0,1.1-0.5,1.1-1.1V71.3c0-0.8,0.6-1.4,1.4-1.4h136.8c0.6,0,1.1-0.5,1.1-1.1V1.3
		C278.6,0.7,278.1,0.2,277.5,0.2z"/>
</g>
</svg>
